<?xml version="1.0" encoding="utf-8"?>
<!-- Generator: Adobe Illustrator 18.0.0, SVG Export Plug-In . SVG Version: 6.00 Build 0)  -->
<!DOCTYPE svg PUBLIC "-//W3C//DTD SVG 1.1//EN" "http://www.w3.org/Graphics/SVG/1.1/DTD/svg11.dtd">
<svg version="1.1" id="Camada_1" xmlns="http://www.w3.org/2000/svg" xmlns:xlink="http://www.w3.org/1999/xlink" x="0px" y="0px"
	 viewBox="982.2 0 35.6 8" enable-background="new 982.2 0 35.6 8" xml:space="preserve">
<path fill="#433D3E" d="M1000.6,6.4c0.4,0.3,0.9,0.5,1.5,0.5c0.8,0,1.6-0.5,1.6-1.3c0-0.5-0.3-0.9-1-1.3c-0.9-0.5-1.4-1.1-1.4-1.8
	c0-1.3,1.1-2.1,2.4-2.1c0.7,0,1.2,0.2,1.5,0.4l-0.3,0.7c-0.2-0.1-0.7-0.3-1.2-0.3c-0.9,0-1.4,0.6-1.4,1.2c0,0.6,0.4,0.9,1.1,1.3
	c0.9,0.5,1.4,1,1.4,1.9c0,1.2-1,2.2-2.6,2.2c-0.7,0-1.4-0.2-1.7-0.5L1000.6,6.4z"/>
<path fill="#433D3E" d="M1004.9,7.5l1-5.1h0.9l-1,5.1H1004.9z M1006,0.9c0-0.3,0.3-0.6,0.6-0.6c0.3,0,0.5,0.2,0.5,0.6
	c0,0.3-0.3,0.6-0.6,0.6C1006.2,1.5,1006,1.3,1006,0.9"/>
<path fill="#433D3E" d="M1009.3,1l-0.3,1.4h1.2l-0.1,0.7h-1.2l-0.5,2.5c0,0.3-0.1,0.6-0.1,0.8c0,0.3,0.1,0.5,0.5,0.5
	c0.1,0,0.3,0,0.4,0l0,0.7c-0.2,0.1-0.4,0.1-0.7,0.1c-0.8,0-1.1-0.5-1.1-1c0-0.3,0-0.6,0.1-1l0.5-2.6h-0.7l0.1-0.7h0.7l0.2-1.2
	L1009.3,1z"/>
<path fill="#433D3E" d="M1013.5,7.2c-0.4,0.2-1,0.4-1.7,0.4c-1.4,0-2-0.9-2-2.1c0-1.6,1.1-3.3,2.8-3.3c1,0,1.5,0.6,1.5,1.3
	c0,1.3-1.5,1.7-3.4,1.7c0,0.2,0,0.7,0.1,1c0.2,0.5,0.6,0.7,1.1,0.7c0.6,0,1.1-0.2,1.4-0.4L1013.5,7.2z M1012.6,3
	c-0.8,0-1.5,0.8-1.7,1.6c1.4,0,2.5-0.2,2.5-1C1013.3,3.2,1013,3,1012.6,3"/>
<path fill="#433D3E" d="M1014.4,6.6c0.2,0.1,0.7,0.3,1.1,0.3c0.6,0,1-0.4,1-0.8c0-0.4-0.2-0.6-0.7-0.9c-0.6-0.3-0.9-0.8-0.9-1.3
	c0-0.9,0.8-1.6,1.9-1.6c0.5,0,0.9,0.1,1.1,0.3l-0.2,0.7c-0.2-0.1-0.5-0.2-0.9-0.2c-0.5,0-0.9,0.3-0.9,0.8c0,0.4,0.2,0.6,0.7,0.9
	c0.6,0.3,1,0.8,1,1.3c0,1.1-0.9,1.7-2,1.7c-0.6,0-1-0.2-1.3-0.3L1014.4,6.6z"/>
<path fill="#DE1862" d="M989.2,7.5c-0.7,0.2-1.9,0.5-3,0.5c-1.1,0-2.1-0.3-2.8-0.8c-0.7-0.5-1.2-1.4-1.2-2.6c0-1.5,0.6-2.6,1.7-3.4
	c1-0.7,2.3-1.1,3.8-1.1c1.1,0,2.1,0.2,2.4,0.4l-0.6,1.7c-0.4-0.2-1.1-0.4-1.9-0.4c-0.8,0-1.5,0.2-2,0.5c-0.7,0.4-1.1,1.2-1.1,2.1
	c0,1.3,0.9,1.9,2.1,1.9c0.4,0,0.7-0.1,0.8-0.1l0.2-1.2h-1.2l0.3-1.6h3.2L989.2,7.5z"/>
<path fill="#DE1862" d="M992.9,8c-2.1,0-3.6-1.3-3.6-3.5c0-1.3,0.5-2.5,1.3-3.3c0.8-0.8,2-1.2,3.3-1.2c2.1,0,3.6,1.2,3.6,3.5
	c0,1.3-0.5,2.5-1.3,3.2C995.4,7.5,994.3,8,992.9,8L992.9,8L992.9,8z M993.2,6.3c0.5,0,1-0.2,1.3-0.6c0.5-0.5,0.8-1.3,0.8-2.1
	c0-1.1-0.4-2-1.6-2c-0.5,0-1,0.2-1.4,0.6c-0.5,0.5-0.8,1.3-0.8,2.1C991.5,5.6,992.1,6.3,993.2,6.3L993.2,6.3z"/>
<path fill="#DE1862" d="M998.3,8c-0.6,0-1.1-0.4-1.1-1.1c0-0.8,0.5-1.4,1.4-1.4c0.6,0,1.1,0.4,1.1,1.1C999.7,7.5,999.1,8,998.3,8
	L998.3,8L998.3,8z M998,5.2l0.6-5.1h2.1l-1.3,5.1H998z"/>
</svg>
